PathFileType	4	(X/Y/Z)	C:\Users\Basilio\Documents\Thesis Gigler\squatting_fais\c3dfiles\019\SJ_pre3\markers_experimental.trc
DataRate	CameraRate	NumFrames	NumMarkers	Units	OrigDataRate	OrigDataStartFrame	OrigNumFrames
200.000000	200.000000	4	59	mm	200.000000	488	1302
Frame#	Time	FHD			RBHD			C7			T10			CLAV			LSHO			LUUPA			LMUPA			LDUPA			LLEP			LMEP			LRAD			LUL			LRFIN			RSHO			RUPA1			RMUPA			RDUPA			RLEP			RMEP			RRAD			RUL			RUFIN			LASI			RASI			USACR			LSACR			RSACR			LTHI1			LTHI2			LTHI3			LTHI4			LLFC			LTIB1			LTIB2			LTIB3			LTIB4			LLMAL			LMMAL			LHEE			LMT1			LMT2			LMT5			RTHI			RTHI2			RTHI3			RTHI4			RLFC			RTIB1			RTIB2			RTIB3			RTIB4			RLMAL			RMMAL			RHEE			RMT1			RMT2			RMT5			LBHD			
		X1	Y1	Z1	X2	Y2	Z2	X3	Y3	Z3	X4	Y4	Z4	X5	Y5	Z5	X6	Y6	Z6	X7	Y7	Z7	X8	Y8	Z8	X9	Y9	Z9	X10	Y10	Z10	X11	Y11	Z11	X12	Y12	Z12	X13	Y13	Z13	X14	Y14	Z14	X15	Y15	Z15	X16	Y16	Z16	X17	Y17	Z17	X18	Y18	Z18	X19	Y19	Z19	X20	Y20	Z20	X21	Y21	Z21	X22	Y22	Z22	X23	Y23	Z23	X24	Y24	Z24	X25	Y25	Z25	X26	Y26	Z26	X27	Y27	Z27	X28	Y28	Z28	X29	Y29	Z29	X30	Y30	Z30	X31	Y31	Z31	X32	Y32	Z32	X33	Y33	Z33	X34	Y34	Z34	X35	Y35	Z35	X36	Y36	Z36	X37	Y37	Z37	X38	Y38	Z38	X39	Y39	Z39	X40	Y40	Z40	X41	Y41	Z41	X42	Y42	Z42	X43	Y43	Z43	X44	Y44	Z44	X45	Y45	Z45	X46	Y46	Z46	X47	Y47	Z47	X48	Y48	Z48	X49	Y49	Z49	X50	Y50	Z50	X51	Y51	Z51	X52	Y52	Z52	X53	Y53	Z53	X54	Y54	Z54	X55	Y55	Z55	X56	Y56	Z56	X57	Y57	Z57	X58	Y58	Z58	X59	Y59	Z59	

489	2.44	-49.12279891967775	936.6383056640627	-1022.510131835938	-48.16585540771486	936.9930419921877	-882.1145019531252	-122.6283340454102	841.2208251953127	-948.636413574219	-368.1886901855469	696.5392456054689	-945.8634033203127	-46.36106491088868	707.3756713867189	-946.355163574219	-58.71084594726564	779.2083740234377	-1098.0341796875	-174.1237945556641	714.5000610351564	-1211.906494140625	-209.0943450927735	683.8300781250001	-1192.244384765625	-230.8140716552735	698.6121215820314	-1245.917602539063	-292.7891540527344	707.9196166992189	-1303.36328125	-337.6728820800782	761.6683959960939	-1281.99609375	-472.2356567382814	583.6734619140626	-1168.401245117188	-464.1092834472657	540.9808349609376	-1222.519897460938	-439.854949951172	557.7593383789064	-1130.421997070313	-51.47744750976564	770.383972167969	-801.797546386719	-177.891586303711	764.4965820312501	-659.2177124023439	-192.8540954589844	715.9672851562501	-655.9373779296876	-228.0518341064454	741.6028442382814	-614.0470581054689	-293.3988342285157	708.1965332031251	-577.4501342773439	-327.2222900390626	763.6322021484376	-595.2633666992189	-475.702850341797	588.1226806640626	-718.3123779296876	-460.9619750976564	535.6676025390626	-676.4487304687501	-444.9605712890626	559.9699707031251	-765.3474731445314	-411.4649658203126	525.9685668945314	-1086.172729492188	nan	nan	nan	-497.525848388672	616.5152587890626	-947.9926757812502	-525.9281005859376	597.3878173828126	-973.5989990234377	-523.8725585937501	596.0386962890626	-918.6691894531252	-401.6366577148439	432.8196411132814	-1186.749877929688	-325.1552734375001	466.2543334960939	-1209.14404296875	-310.8063049316407	505.9178466796876	-1184.878173828125	-275.2373352050782	435.5232238769532	-1227.155151367188	-192.6286773681641	417.5014648437501	-1235.542846679688	-161.353515625	284.2874755859376	-1213.78271484375	-241.5130920410157	268.5300292968751	-1250.635131835938	-205.2291870117188	252.1358947753907	-1233.046020507813	-237.4370574951172	183.2427978515625	-1193.145751953125	-360.8770141601563	97.20813751220706	-1198.241577148438	-321.6218566894532	93.9931106567383	-1119.536010742188	-416.6683044433595	48.20960998535158	-1134.293579101563	-204.3999176025391	55.57478713989259	-1185.883911132813	-215.5346984863282	58.30580139160158	-1223.49853515625	-271.2650451660157	36.12250137329102	-1261.82666015625	-459.0026855468751	465.8765869140626	-732.2332153320314	-402.7959594726564	495.4170532226564	-727.2196655273439	-396.0755004882814	510.5986328125001	-756.0656127929689	-336.2319335937501	470.3441772460939	-688.7585449218751	-194.6047973632813	422.384490966797	-658.3897094726564	-176.7909088134766	249.8511047363282	-702.0154418945314	-272.3379211425782	208.4424285888672	-665.6191406250001	-236.4498748779297	191.4666748046875	-690.2925415039064	-248.170639038086	148.69140625	-731.0208129882814	-349.4338378906251	98.18402862548831	-703.8111572265626	-309.9574890136719	92.93015289306642	-775.5901489257815	-397.9790649414064	45.75811004638673	-768.470397949219	-197.0096588134766	53.2872657775879	-708.1748657226564	-210.8135375976563	60.6929168701172	-664.9423217773439	-267.0170288085938	42.01117324829102	-630.6236572265626	nan	nan	nan	
490	2.445	-48.99275588989259	936.5569458007815	-1022.449340820313	-48.29286575317384	936.8676757812502	-882.072448730469	-122.6849441528321	841.204772949219	-948.6207275390627	-368.1405639648438	696.5239257812501	-945.8275146484377	-46.47217178344727	707.3612670898439	-946.3969726562502	-58.74047851562501	779.2427978515627	-1097.983276367188	-174.0102691650391	714.4786987304689	-1212.021606445313	-209.1510009765626	683.8202514648439	-1192.225952148438	-230.9390106201172	698.5866699218751	-1245.922485351563	-292.7579345703126	707.8310546875001	-1303.3544921875	-337.6505126953126	761.6057128906251	-1281.982666015625	-472.164276123047	583.5615234375001	-1168.531982421875	-464.0524291992189	540.8247680664064	-1222.629028320313	-440.0479125976564	557.7359619140626	-1130.551513671875	-51.47634124755861	770.3917236328127	-801.8677978515627	-177.7716827392578	764.1610717773439	-659.1459350585939	-192.7496032714844	715.6608276367189	-655.8466186523439	-227.8673400878907	741.2351074218751	-613.9172973632814	-293.2724609375001	707.8699951171876	-577.5882568359376	-327.1971740722657	763.2204589843751	-595.0972290039064	-475.7618103027345	587.9924926757814	-718.2011108398439	-460.9519653320314	535.4227905273439	-676.4255981445314	-444.9444580078126	559.8915405273439	-765.3104248046876	-411.0198364257814	526.2275390625001	-1086.26806640625	nan	nan	nan	-497.6743774414064	616.4786987304689	-947.9749755859377	-525.8577270507814	597.2934570312501	-973.6192626953127	-523.9489746093751	596.0446166992189	-918.6143798828127	-401.743377685547	432.8261718750001	-1186.721923828125	-325.2825927734376	466.2916564941407	-1209.120361328125	-310.9477539062501	505.923309326172	-1184.848266601563	-275.2713012695313	435.5115966796876	-1227.056518554688	-192.6988983154297	417.5137023925782	-1235.44482421875	-161.4522552490235	284.3104248046876	-1213.723754882813	-241.5009155273438	268.5440979003907	-1250.542724609375	-205.4018707275391	252.1917724609376	-1232.856079101563	-237.4324798583985	183.2783660888672	-1193.130615234375	-360.9024963378907	97.21949005126956	-1198.23583984375	-321.6231079101563	94.02017211914064	-1119.538208007813	-416.820770263672	48.29421234130861	-1134.30712890625	-204.3955078125001	55.57320404052736	-1185.910400390625	-215.5271911621094	58.29222869873048	-1223.475219726563	-271.2324218750001	36.11179351806641	-1261.82763671875	-459.0159301757814	465.8956298828126	-732.2385864257814	-402.8938598632814	495.4077453613282	-727.1771240234376	-396.1846923828126	510.5909423828126	-756.0545654296876	-336.2875976562501	470.3262939453126	-688.7130737304689	-194.6350097656251	422.4100952148439	-658.4218750000001	-177.0076446533203	250.1524353027344	-702.2698974609376	-272.3106689453126	208.4327697753907	-665.6307373046876	-236.5294036865235	191.4954833984375	-690.2579956054689	-248.1884307861329	148.7019805908203	-731.0136108398439	-349.4881896972657	98.19829559326175	-703.8284301757814	-309.9699096679688	92.9157180786133	-775.5899658203127	-397.9674682617189	45.75027465820313	-768.4754028320315	-196.9265136718751	53.27773666381837	-708.1457519531251	-210.7969207763672	60.71799087524415	-664.9494018554689	-266.9108276367188	41.94424057006837	-630.6270751953126	nan	nan	nan	
491	2.45	-49.04062271118165	936.609802246094	-1022.386535644531	-48.38741683959962	936.699890136719	-882.0900878906252	-122.7956619262696	841.1129150390627	-948.612487792969	-368.4021606445313	696.4739379882814	-945.8884887695315	-46.5545768737793	707.2944335937501	-946.365173339844	-58.72901153564455	779.1817016601565	-1097.949096679688	-173.9275817871094	714.4186401367189	-1212.10986328125	-209.1948547363282	683.8145751953126	-1192.245849609375	-230.9317474365235	698.5570678710939	-1245.909912109375	-292.8043518066407	707.8334960937501	-1303.38818359375	-337.6606445312501	761.5690917968751	-1282.0048828125	-472.1432189941407	583.4624023437501	-1168.595825195313	-464.0470581054689	540.7709960937501	-1222.7021484375	-440.2550048828126	557.7561035156251	-1130.564086914063	-51.64738845825197	770.3607177734377	-801.8992309570315	-177.6980590820313	763.6841430664064	-658.9941406250001	-192.7167053222657	715.2296752929689	-655.8441772460939	-227.871078491211	740.8602294921876	-613.8525390625001	-293.1912536621094	707.4476318359376	-577.3981933593751	-327.2211914062501	762.9664916992189	-595.0333251953126	-475.8113403320314	587.8540649414064	-718.1240844726564	-461.014617919922	535.2274169921876	-676.5178833007814	-445.0170288085939	559.7941284179689	-765.2824707031251	-412.0813293457032	526.4439697265626	-1087.325317382813	nan	nan	nan	-497.7911682128907	616.4730224609376	-948.0152587890627	-526.1924438476564	597.4247436523439	-973.5905761718752	-524.1108398437501	596.0340576171876	-918.605651855469	-401.7500915527345	432.7528381347657	-1186.718994140625	-325.3009033203126	466.3229370117189	-1209.0205078125	-310.9006958007813	505.8826599121095	-1184.858032226563	-275.3301391601563	435.5200195312501	-1227.013793945313	-192.6922607421876	417.5429687500001	-1235.449829101563	-161.3788757324219	284.3038024902344	-1213.67431640625	-241.6044921875001	268.6033630371094	-1250.46337890625	-205.2772064208985	252.2055664062501	-1232.937377929688	-237.5158691406251	183.246322631836	-1193.101440429688	-360.9368896484376	97.22553253173831	-1198.239379882813	-321.6585693359376	93.96305084228517	-1119.539184570313	-416.8471069335939	48.3319664001465	-1134.328857421875	-204.3926696777344	55.5770835876465	-1185.87109375	-215.5252838134766	58.34185028076173	-1223.478515625	-271.2366027832032	36.1611671447754	-1261.812744140625	-459.2006835937501	465.9336853027345	-732.2357788085939	-402.9353637695314	495.4192810058595	-727.2105102539064	-396.2034606933595	510.5997924804689	-756.1354370117189	-336.4467163085938	470.3296813964845	-688.7448120117189	-194.7049713134766	422.4410400390626	-658.4653930664064	-176.8922882080078	250.0205078125001	-702.1912841796876	-272.3372497558594	208.4452362060547	-665.6248779296876	-236.5459289550782	191.5009918212891	-690.3352661132814	-248.2420196533204	148.76416015625	-730.9176025390626	-349.4650573730469	98.2193298339844	-703.8342895507814	-309.9772338867188	92.94290924072267	-775.5938110351565	-397.9606323242189	45.75214004516602	-768.4707641601565	-196.9693908691407	53.17503356933595	-708.1955566406251	-210.8002471923829	60.68871688842775	-664.9449462890626	-266.9732055664063	42.01096343994141	-630.6106567382814	nan	nan	nan	
492	2.455	-49.06319427490236	936.5467529296877	-1022.333068847656	-48.48644638061525	936.5388793945315	-882.0784301757815	-122.8263854980469	841.0786132812502	-948.524353027344	-368.3322143554688	696.4656982421876	-945.847839355469	-46.72743606567384	707.2420654296876	-946.3675537109377	-58.82260894775392	779.1080322265627	-1097.958129882813	-174.2070617675782	714.4083251953126	-1211.9375	-209.1729125976563	683.7235107421876	-1192.254272460938	-230.924301147461	698.5373535156251	-1245.91357421875	-292.8259582519532	707.8248291015626	-1303.385131835938	-337.6839294433594	761.5751342773439	-1282.010498046875	-472.1897583007814	583.4047241210939	-1168.683837890625	-464.0782165527345	540.6867675781251	-1222.80126953125	-441.0139465332032	557.8031616210939	-1131.8115234375	-51.64933395385744	770.3336181640627	-801.9644165039065	-177.6127166748047	763.4295654296876	-658.9273071289064	-192.6311035156251	714.7985839843751	-655.7716064453126	-227.6619567871094	740.4197998046876	-613.6953735351564	-293.0915527343751	707.0186157226564	-577.1495361328126	-327.3698425292969	762.5964355468751	-594.9639282226564	-475.8594360351564	587.6999511718751	-718.0051879882814	-461.064178466797	534.9797363281251	-676.4165039062501	-444.9877014160157	559.7811889648439	-765.2303466796876	-418.1954345703126	526.8312988281251	-1091.904296875	nan	nan	nan	-497.7992553710939	616.3855590820314	-948.0103149414065	-528.0893554687501	598.0534057617189	-974.4031372070315	-524.1422729492189	595.9503784179689	-918.5758056640627	-401.7729492187501	432.7363281250001	-1186.645629882813	-325.3285827636719	466.2981567382814	-1208.962646484375	-311.5358886718751	505.8232727050782	-1185.65771484375	-275.4403076171876	435.5650634765626	-1227.0087890625	-192.7178649902344	417.5704650878907	-1235.475830078125	-161.364501953125	284.3551025390626	-1213.599731445313	-241.5979614257813	268.5495605468751	-1250.408325195313	-205.2809295654297	252.230209350586	-1232.823364257813	-237.5474700927735	183.2957916259766	-1193.060913085938	-360.9696655273438	97.23110198974612	-1198.213989257813	-321.6666870117188	93.95633697509767	-1119.49658203125	-416.6759338378907	48.17815399169923	-1134.285888671875	-204.4210205078126	55.58432769775392	-1185.888305664063	-215.539779663086	58.32519149780275	-1223.438354492188	-271.2298889160157	36.1437110900879	-1261.804321289063	-459.2089233398439	465.9465332031251	-732.2857055664064	-402.9791259765626	495.3939514160157	-727.2187500000001	-396.2921142578126	510.525360107422	-756.1014404296876	-336.4185180664063	470.2998352050782	-688.7863159179689	-194.6878814697266	422.4649047851564	-658.4973144531251	-177.0817413330078	250.1988983154297	-702.3080444335939	-272.3399353027344	208.4329986572266	-665.6434936523439	-236.436752319336	191.5494995117188	-690.2915649414064	-248.2951354980469	148.9100189208985	-730.7943725585939	-349.4824829101563	98.18920898437503	-703.8351440429689	-310.0190734863282	92.91687774658205	-775.598327636719	-398.0149230957032	45.76729965209962	-768.4505004882815	-196.9044342041016	53.28033828735353	-708.1738891601564	-210.8157196044922	60.70135498046876	-664.9851074218751	-266.9912414550782	41.98128128051759	-630.6130371093751	nan	nan	nan	
